<svg width="478" height="466" viewBox="0 0 478 466" fill="none" xmlns="http://www.w3.org/2000/svg">
<path d="M220.556 464.862C220.031 464.714 217.396 464.114 214.699 463.527C212.002 462.941 209.621 462.198 209.407 461.876C209.194 461.555 208.363 453.274 207.561 443.476C206.759 433.677 206.035 425.306 205.953 424.875C205.833 424.253 204.582 423.846 199.925 422.914C192.218 421.371 181.646 418.5 174.315 415.959C171.077 414.837 168.248 414.067 168.028 414.248C167.808 414.429 162.731 421.061 156.745 428.987C150.759 436.912 145.588 443.627 145.254 443.909C144.782 444.307 143.433 444.039 139.231 442.715C123.16 437.648 108.359 429.049 97.915 418.71L95.4159 416.236L103.701 399.236C108.257 389.887 111.999 382.099 112.016 381.931C112.033 381.763 110.577 380.417 108.78 378.94C102.587 373.852 94.4149 365.76 86.1094 356.493L84.5242 354.725L66.7344 362.26C49.9265 369.38 48.891 369.75 47.9744 368.978C47.4408 368.529 45.1653 366.136 42.9177 363.66C33.1433 352.894 24.8846 338.225 21.15 324.996L20.0974 321.267L21.417 320.43C22.1427 319.97 29.3541 315.218 37.4424 309.87C49.0252 302.212 52.1296 299.943 52.0602 299.183C52.0117 298.653 51.0426 295.546 49.9065 292.279C47.5026 285.366 44.5994 274.498 43.3904 267.887L42.544 263.259L36.0123 262.284C32.4198 261.747 23.6245 260.712 16.4672 259.983L3.45399 258.657L2.08761 252.429C0.496412 245.177 -0.446455 236.788 -0.504742 229.364C-0.568671 221.224 2.1312 204.413 3.71461 203.092C3.97269 202.877 12.8097 202.056 23.3524 201.268L42.5209 199.834L43.2432 196.332C45.2359 186.669 50.0505 169.974 52.5392 164.098C52.877 163.3 50.8917 161.712 37.1561 151.787L21.3851 140.391L21.8753 138.531C22.8895 134.682 26.8736 124.494 29.0678 120.14C33.7422 110.863 42.0258 99.5057 48.008 94.1715L50.1581 92.2543L67.4782 100.333C77.0042 104.777 84.999 108.433 85.2443 108.458C85.4896 108.483 87.2294 106.78 89.1106 104.674C94.2675 98.8992 101.078 92.3059 107.433 86.9348C112.629 82.5436 113.095 82.019 112.683 81.0233C112.434 80.4223 108.916 72.5422 104.866 63.5119L97.5021 47.0931L99.5805 45.0788C109.77 35.204 125.115 26.0951 139.023 21.6668C147.864 18.8519 145.621 17.2675 158.375 35.336L169.437 51.0062L173.79 49.5583C182.61 46.6247 196.871 43.1051 204.836 41.8962L206.878 41.5863L207.661 37.0094C208.092 34.4921 209.102 25.9884 209.905 18.1124L211.368 3.79252L213.152 3.27032C221.81 0.735795 235.307 -0.593809 246.584 -0.023272C255.027 0.403897 267.967 2.97683 268.663 4.36693C268.805 4.65015 269.593 13.0728 270.414 23.0839C271.236 33.0951 272.035 41.44 272.19 41.6283C272.345 41.8165 274.851 42.4552 277.758 43.0476C285.412 44.6071 296.812 47.6763 303.639 50.0155C306.899 51.1326 309.618 52.0518 309.682 52.0583C309.745 52.0647 315 45.2046 321.36 36.8135C332.894 21.5957 332.927 21.5579 334.356 21.9483C346.981 25.4005 361.244 32.2691 370.93 39.5609C375.422 42.9433 381.873 48.7566 382.124 49.6487C382.223 50.0009 378.656 57.7866 374.196 66.9504C369.737 76.1142 366.071 83.7822 366.05 83.9905C366.028 84.1987 367.482 85.5776 369.279 87.0545C374.003 90.9359 382.919 99.5386 387.39 104.528C389.513 106.897 391.765 109.379 392.395 110.044L393.54 111.252L411.368 103.736L429.196 96.2199L431.255 98.2194C434.619 101.485 441.468 109.855 444.373 114.248C449.875 122.569 455.073 133.873 457.156 142.052L457.843 144.748L441.693 155.491L425.542 166.233L427.715 172.504C430.189 179.642 432.991 190.008 434.479 197.52C435.036 200.334 435.585 202.754 435.699 202.897C435.813 203.04 444.548 204.144 455.11 205.352L474.314 207.547L475.197 210.502C476.726 215.624 478.352 227.749 478.477 234.969C478.648 244.772 476.089 261.482 474.187 262.988C473.854 263.251 465.354 264.062 455.298 264.791C445.242 265.52 436.652 266.18 436.209 266.257C435.572 266.368 435.161 267.582 434.229 272.116C432.687 279.613 429.797 289.896 427.228 297.022C426.093 300.17 425.319 302.911 425.507 303.114C425.695 303.317 432.533 308.295 440.701 314.176C448.87 320.058 455.791 325.141 456.082 325.472C456.493 325.941 456.226 327.251 454.887 331.34C451.761 340.892 446.767 351.086 441.719 358.222C437.255 364.532 428.867 373.626 427.629 373.499C427.316 373.467 419.417 369.869 410.075 365.503C400.733 361.137 392.928 357.549 392.73 357.529C392.532 357.508 390.387 359.682 387.964 362.359C383.226 367.594 375.773 374.774 369.047 380.585L364.86 384.201L372.68 401.58L380.499 418.958L378.453 420.957C375.114 424.218 366.56 430.844 362.063 433.651C353.542 438.97 341.926 443.986 333.587 445.946L330.823 446.596L320.338 431.725C314.571 423.546 309.506 416.479 309.082 416.022C308.373 415.255 307.835 415.34 302.334 417.088C293.311 419.955 280.45 423.057 273.211 424.113C271.36 424.383 271.113 424.582 270.679 426.152C270.415 427.109 269.409 435.613 268.445 445.05L266.691 462.208L264.469 462.907C260.985 464.004 250.001 465.642 243.492 466.034C238.112 466.358 223.162 465.594 220.557 464.862L220.556 464.862ZM242.41 361.065C272.257 360.307 299.778 350.468 322.346 332.487C353.943 307.313 371.462 270.17 370.463 230.47C369.864 206.673 362.416 183.42 348.854 163.011C345.141 157.424 336.517 147.128 331.641 142.463C309.601 121.375 282.299 108.777 251.997 105.712C216.669 102.14 183.079 111.851 155.719 133.546C133.259 151.355 118.506 174.115 111.153 202.301C108.856 211.106 107.172 226.399 107.512 235.356C108.308 256.255 113.276 274.722 122.835 292.308C127.502 300.895 131.099 306.183 137.339 313.632C157.839 338.103 185.233 353.595 218.532 359.549C223.022 360.351 236.589 361.213 242.41 361.065Z" fill="white" fill-opacity="0.04"/>
</svg>
