<svg width="14" height="14" viewBox="0 0 14 14" fill="none" xmlns="http://www.w3.org/2000/svg">
<path d="M7.00299 3.41864C5.11013 3.41864 3.58335 4.94543 3.58335 6.83829C3.58335 8.73114 5.11013 10.2579 7.00299 10.2579C8.89584 10.2579 10.4226 8.73114 10.4226 6.83829C10.4226 4.94543 8.89584 3.41864 7.00299 3.41864ZM7.00299 9.0615C5.77977 9.0615 4.77977 8.06448 4.77977 6.83829C4.77977 5.6121 5.7768 4.61507 7.00299 4.61507C8.22918 4.61507 9.2262 5.6121 9.2262 6.83829C9.2262 8.06448 8.2262 9.0615 7.00299 9.0615ZM11.3601 3.27876C11.3601 3.72222 11.003 4.07638 10.5625 4.07638C10.1191 4.07638 9.76489 3.71924 9.76489 3.27876C9.76489 2.83829 10.122 2.48114 10.5625 2.48114C11.003 2.48114 11.3601 2.83829 11.3601 3.27876ZM13.625 4.08829C13.5744 3.01983 13.3304 2.07341 12.5476 1.29364C11.7679 0.513882 10.8214 0.269834 9.75299 0.216263C8.6518 0.153763 5.3512 0.153763 4.25001 0.216263C3.18454 0.266858 2.23811 0.510906 1.45537 1.29067C0.672633 2.07043 0.431562 3.01686 0.377991 4.08531C0.315491 5.1865 0.315491 8.4871 0.377991 9.58829C0.428586 10.6567 0.672633 11.6032 1.45537 12.3829C2.23811 13.1627 3.18156 13.4067 4.25001 13.4603C5.3512 13.5228 8.6518 13.5228 9.75299 13.4603C10.8214 13.4097 11.7679 13.1657 12.5476 12.3829C13.3274 11.6032 13.5714 10.6567 13.625 9.58829C13.6875 8.4871 13.6875 5.18948 13.625 4.08829ZM12.2024 10.7698C11.9702 11.3532 11.5208 11.8026 10.9345 12.0377C10.0566 12.3859 7.97322 12.3055 7.00299 12.3055C6.03275 12.3055 3.94644 12.3829 3.07144 12.0377C2.48811 11.8055 2.0387 11.3561 1.80359 10.7698C1.45537 9.89186 1.53573 7.80853 1.53573 6.83829C1.53573 5.86805 1.45835 3.78174 1.80359 2.90674C2.03573 2.32341 2.48513 1.874 3.07144 1.63888C3.94942 1.29067 6.03275 1.37102 7.00299 1.37102C7.97322 1.37102 10.0595 1.29364 10.9345 1.63888C11.5179 1.87102 11.9673 2.32043 12.2024 2.90674C12.5506 3.78472 12.4702 5.86805 12.4702 6.83829C12.4702 7.80853 12.5506 9.89483 12.2024 10.7698Z" fill="white"/>
</svg>
