<svg width="478" height="466" viewBox="0 0 478 466" fill="none" xmlns="http://www.w3.org/2000/svg">
<path d="M244.152 465.537C243.615 465.444 240.932 465.113 238.19 464.803C235.448 464.493 233.003 463.995 232.758 463.697C232.513 463.399 230.848 455.245 229.057 445.578C227.265 435.911 225.697 427.657 225.571 427.236C225.389 426.63 224.104 426.352 219.375 425.896C211.552 425.143 200.743 423.358 193.193 421.573C189.858 420.785 186.965 420.306 186.765 420.508C186.564 420.71 182.185 427.823 177.033 436.315C171.882 444.806 167.418 452.011 167.114 452.325C166.685 452.768 165.316 452.639 161.002 451.747C144.499 448.336 128.903 441.281 117.465 432.054L114.728 429.846L121.247 412.094C124.832 402.331 127.766 394.204 127.766 394.035C127.766 393.866 126.18 392.675 124.243 391.388C117.566 386.953 108.616 379.731 99.4139 371.354L97.6576 369.755L80.7232 379.055C64.7235 387.841 63.7309 388.315 62.7408 387.64C62.1644 387.247 59.6581 385.097 57.1711 382.862C46.3558 373.142 36.6528 359.386 31.5966 346.603L30.1715 343L31.3994 342.034C32.0747 341.503 38.7674 336.044 46.2719 329.904C57.0188 321.111 59.8772 318.539 59.7312 317.79C59.6293 317.268 58.3502 314.275 56.8887 311.14C53.7966 304.506 49.8068 293.989 47.9339 287.534L46.6228 283.015L40.0258 282.707C36.3975 282.538 27.5426 282.399 20.3482 282.399H7.26762L5.27708 276.343C2.95901 269.289 1.17069 261.039 0.360227 253.659C-0.528481 245.567 0.453533 228.569 1.89493 227.095C2.12986 226.854 10.8381 225.142 21.2466 223.289L40.1711 219.92L40.5347 216.363C41.5377 206.547 44.6354 189.45 46.5157 183.352C46.7708 182.525 44.6348 181.145 29.9639 172.664L13.1191 162.925L13.4182 161.025C14.037 157.093 16.968 146.554 18.7096 142C22.4196 132.297 29.5094 120.158 34.9202 114.245L36.8648 112.12L54.9146 118.402C64.8419 121.857 73.1661 124.684 73.4127 124.684C73.6593 124.684 75.2175 122.813 76.8755 120.527C81.4206 114.26 87.5276 107.01 93.306 101.023C98.0301 96.1273 98.4404 95.5582 97.929 94.6094C97.6204 94.0367 93.3223 86.5537 88.3777 77.9804L79.3875 62.3927L81.251 60.1781C90.3867 49.3213 104.73 38.704 118.118 32.8888C126.627 29.1922 124.235 27.8434 138.756 44.5261L151.349 58.9944L155.532 57.1127C164.009 53.3003 177.84 48.3532 185.641 46.3433L187.642 45.828L187.957 41.1953C188.13 38.6473 188.273 30.0851 188.274 22.1681L188.278 7.77372L190 7.07339C198.357 3.67434 211.649 0.983613 222.926 0.408165C231.369 -0.0226829 244.503 1.22545 245.336 2.53785C245.506 2.80523 247.144 11.1046 248.976 20.9809C250.808 30.8572 252.449 39.0782 252.622 39.2497C252.795 39.4213 255.353 39.8028 258.305 40.0974C266.078 40.8731 277.73 42.771 284.759 44.4062C288.115 45.1871 290.914 45.826 290.977 45.826C291.041 45.826 295.574 38.4684 301.051 29.4759C310.983 13.1675 311.012 13.1265 312.472 13.3702C325.383 15.5248 340.269 20.9124 350.643 27.1849C355.456 30.0945 362.463 35.224 362.803 36.0861C362.937 36.4264 360.177 44.5337 356.669 54.1023C353.162 63.6708 350.292 71.6709 350.292 71.8803C350.292 72.0896 351.877 73.3141 353.815 74.6012C358.908 77.9839 368.65 85.6384 373.604 90.1488C375.956 92.2907 378.448 94.5319 379.142 95.1291L380.403 96.2149L397.378 86.9306L414.353 77.6463L416.604 79.4267C420.281 82.335 427.944 89.9673 431.279 94.0433C437.596 101.764 443.912 112.483 446.814 120.408L447.771 123.021L432.792 135.345L417.814 147.669L420.612 153.688C423.796 160.538 427.634 170.567 429.876 177.889C430.715 180.632 431.507 182.984 431.635 183.115C431.762 183.245 440.564 183.459 451.195 183.59L470.523 183.827L471.7 186.677C473.74 191.618 476.587 203.516 477.444 210.686C478.607 220.42 477.755 237.304 476.015 238.995C475.711 239.29 467.337 240.959 457.406 242.704C447.476 244.448 438.997 245.975 438.565 246.097C437.942 246.272 437.656 247.522 437.188 252.126C436.414 259.741 434.581 270.264 432.748 277.614C431.938 280.86 431.445 283.666 431.653 283.849C431.861 284.032 439.168 288.291 447.89 293.314C456.613 298.337 464.014 302.693 464.337 302.993C464.793 303.417 464.66 304.748 463.743 308.951C461.601 318.771 457.666 329.419 453.367 337.03C449.565 343.76 442.143 353.657 440.899 353.656C440.584 353.656 432.361 350.877 422.624 347.48C412.888 344.084 404.759 341.305 404.56 341.305C404.361 341.305 402.448 343.685 400.309 346.594C396.125 352.283 389.439 360.181 383.337 366.643L379.538 370.666L389.078 387.162L398.618 403.658L396.786 405.854C393.795 409.437 385.957 416.896 381.767 420.144C373.829 426.299 362.781 432.467 354.684 435.262L352 436.189L340.062 422.457C333.496 414.905 327.741 408.388 327.272 407.976C326.489 407.285 325.963 407.424 320.667 409.721C311.981 413.487 299.501 417.877 292.406 419.661C290.592 420.117 290.366 420.34 290.094 421.946C289.927 422.925 289.789 431.487 289.786 440.973L289.781 458.22L287.641 459.142C284.286 460.586 273.524 463.328 267.089 464.378C261.77 465.246 246.819 466.001 244.153 465.537H244.152ZM255.373 360.06C284.989 356.281 311.371 343.703 332.001 323.527C360.883 295.28 374.547 256.552 369.529 217.158C366.522 193.544 356.755 171.166 341.194 152.237C336.934 147.054 327.31 137.686 321.987 133.539C297.924 114.793 269.485 105.028 239.028 105.051C203.52 105.077 171.087 118.143 146.067 142.499C125.528 162.493 113.159 186.632 108.7 215.418C107.307 224.41 107.182 239.795 108.428 248.671C111.338 269.382 118.152 287.25 129.444 303.777C134.958 311.846 139.073 316.743 146.035 323.521C168.91 345.789 197.733 358.424 231.464 360.972C236.013 361.315 249.597 360.797 255.373 360.06Z" fill="white" fill-opacity="0.04"/>
</svg>
