<svg width="14" height="12" viewBox="0 0 14 12" fill="none" xmlns="http://www.w3.org/2000/svg">
<path d="M12.2961 2.95093C12.3045 3.06937 12.3045 3.18784 12.3045 3.30627C12.3045 6.91877 9.55498 11.0812 4.52959 11.0812C2.98136 11.0812 1.54313 10.6328 0.333313 9.8545C0.553287 9.87987 0.764771 9.88833 0.993209 9.88833C2.27068 9.88833 3.44667 9.45687 4.38576 8.72083C3.18441 8.69544 2.17764 7.90864 1.83076 6.82573C1.99998 6.85109 2.16917 6.86802 2.34685 6.86802C2.59219 6.86802 2.83756 6.83416 3.06597 6.77497C1.81386 6.52114 0.874745 5.42133 0.874745 4.09307V4.05924C1.23852 4.26229 1.66157 4.38919 2.10993 4.40609C1.37389 3.91539 0.891672 3.07784 0.891672 2.13028C0.891672 1.62268 1.02701 1.15737 1.26391 0.751273C2.60909 2.40948 4.6311 3.49237 6.89842 3.61083C6.85612 3.40778 6.83073 3.1963 6.83073 2.98479C6.83073 1.47885 8.04902 0.252132 9.56339 0.252132C10.3502 0.252132 11.0608 0.58208 11.56 1.11508C12.1776 0.996638 12.7698 0.7682 13.2944 0.455179C13.0913 1.08971 12.6598 1.62271 12.093 1.96109C12.6429 1.9019 13.1759 1.74958 13.6666 1.5381C13.2944 2.07953 12.8291 2.56174 12.2961 2.95093Z" fill="white"/>
</svg>
