<svg width="15" height="10" viewBox="0 0 15 10" fill="none" xmlns="http://www.w3.org/2000/svg">
<path d="M14.0004 1.28733C14.0931 0.961805 14.0004 0.722221 13.554 0.722221H12.0769C11.7008 0.722221 11.5278 0.92795 11.435 1.15712C11.435 1.15712 10.6827 3.06076 9.61938 4.29514C9.27582 4.65191 9.11784 4.76649 8.92976 4.76649C8.83697 4.76649 8.69403 4.65191 8.69403 4.32639V1.28733C8.69403 0.8967 8.58871 0.722221 8.27775 0.722221H5.95561C5.71988 0.722221 5.57945 0.904513 5.57945 1.07378C5.57945 1.44358 6.11109 1.52951 6.16626 2.57118V4.8316C6.16626 5.32639 6.08099 5.41753 5.89291 5.41753C5.39137 5.41753 4.17262 3.50608 3.4504 1.31858C3.30495 0.894096 3.16201 0.722221 2.78335 0.722221H1.3063C0.885006 0.722221 0.799744 0.92795 0.799744 1.15712C0.799744 1.56337 1.30129 3.5816 3.13443 6.24826C4.35568 8.06858 6.07598 9.05555 7.64079 9.05555C8.58119 9.05555 8.69654 8.8368 8.69654 8.4592C8.69654 6.71962 8.61128 6.55555 9.08273 6.55555C9.3009 6.55555 9.67706 6.67014 10.5548 7.54774C11.5578 8.58941 11.7234 9.05555 12.2851 9.05555H13.7621C14.1834 9.05555 14.3966 8.8368 14.2737 8.40451C13.9928 7.49566 12.0945 5.62587 12.0092 5.50087C11.7911 5.2092 11.8538 5.07899 12.0092 4.81858C12.0117 4.81597 13.8148 2.18055 14.0004 1.28733Z" fill="white"/>
</svg>
